<svg width="500" height="500" viewBox="0 0 500 500" xmlns="http://www.w3.org/2000/svg">
  <rect width="500" height="500" rx="100" fill="#B95C3C" />
  <g fill="#FFFFFF">
    <path d="M300 170 C300 170, 350 160, 365 185 C380 210, 350 230, 340 240 C330 250, 290 280, 270 320 C250 360, 240 390, 240 390 L205 280 C205 280, 190 240, 190 230 C190 220, 180 200, 160 190 C140 180, 120 190, 120 190 C120 190, 160 250, 180 290 C200 330, 210 390, 210 390 L175 280 C175 280, 130 200, 130 180 C130 160, 170 150, 190 160 C210 170, 240 200, 240 230 C240 260, 250 300, 250 300 L270 220 C270 220, 280 180, 270 160 C260 140, 230 150, 230 150 C230 150, 260 120, 300 170 Z" />
    <circle cx="300" cy="200" r="25" />
  </g>
</svg> 