<svg xmlns="http://www.w3.org/2000/svg" xmlns:xlink="http://www.w3.org/1999/xlink" width="500" zoomAndPan="magnify" viewBox="0 0 375 374.999991" height="500" preserveAspectRatio="xMidYMid meet" version="1.2"><defs><clipPath id="5de14b939c"><path d="M 70 72.144531 L 302.5 72.144531 L 302.5 304.644531 L 70 304.644531 Z M 70 72.144531 "/></clipPath><clipPath id="878d3fb246"><path d="M 186.25 72.144531 C 122.046875 72.144531 70 124.191406 70 188.394531 C 70 252.597656 122.046875 304.644531 186.25 304.644531 C 250.453125 304.644531 302.5 252.597656 302.5 188.394531 C 302.5 124.191406 250.453125 72.144531 186.25 72.144531 Z M 186.25 72.144531 "/></clipPath><clipPath id="3d1783d540"><path d="M 0 0.144531 L 232.5 0.144531 L 232.5 232.644531 L 0 232.644531 Z M 0 0.144531 "/></clipPath><clipPath id="994f587207"><path d="M 116.25 0.144531 C 52.046875 0.144531 0 52.191406 0 116.394531 C 0 180.597656 52.046875 232.644531 116.25 232.644531 C 180.453125 232.644531 232.5 180.597656 232.5 116.394531 C 232.5 52.191406 180.453125 0.144531 116.25 0.144531 Z M 116.25 0.144531 "/></clipPath><clipPath id="246f26dcfb"><rect x="0" width="233" y="0" height="233"/></clipPath><clipPath id="ee16fdc6a4"><path d="M 116 126 L 254 126 L 254 256.828125 L 116 256.828125 Z M 116 126 "/></clipPath></defs><g id="9afed301c9"><g clip-rule="nonzero" clip-path="url(#5de14b939c)"><g clip-rule="nonzero" clip-path="url(#878d3fb246)"><g transform="matrix(1,0,0,1,70,72)"><g clip-path="url(#246f26dcfb)"><g clip-rule="nonzero" clip-path="url(#3d1783d540)"><g clip-rule="nonzero" clip-path="url(#994f587207)"><path style=" stroke:none;fill-rule:nonzero;fill:#b35c36;fill-opacity:1;" d="M 0 0.144531 L 232.5 0.144531 L 232.5 232.644531 L 0 232.644531 Z M 0 0.144531 "/></g></g></g></g></g></g><g clip-rule="nonzero" clip-path="url(#ee16fdc6a4)"><path style=" stroke:none;fill-rule:nonzero;fill:#ffffff;fill-opacity:1;" d="M 194.738281 179.464844 C 195.078125 180.304688 195.433594 181.128906 195.816406 181.949219 C 204.617188 178.414062 213.488281 172.941406 218.25 164.488281 C 221.472656 157.753906 223.738281 149.695312 221.582031 142.324219 C 219.410156 136.457031 215.058594 130.726562 208.636719 129.402344 C 201.480469 128.417969 196.476562 135.441406 193.925781 141.246094 C 188.636719 153.34375 189.886719 167.441406 194.738281 179.464844 Z M 166.40625 183.15625 C 173.375 171.597656 177.898438 157.875 177.460938 144.296875 C 174.132812 121.574219 150.917969 127.253906 148.449219 147.21875 C 146.59375 161.429688 151.238281 178.597656 166.40625 183.15625 Z M 225.191406 203.890625 C 239.921875 204.703125 256.644531 188.703125 249.453125 173.855469 C 245.789062 167.25 237.34375 169.515625 232.675781 173.726562 C 224.453125 181.148438 221.601562 192.886719 221.984375 203.632812 C 223.046875 203.777344 224.113281 203.863281 225.191406 203.890625 Z M 136.222656 208.839844 C 139.503906 208.667969 142.511719 207.152344 145.308594 205.542969 C 147.324219 193.785156 145.671875 177.042969 133.210938 171.816406 C 125.140625 169.351562 118.03125 177.410156 118.9375 185.203125 C 119.511719 195.246094 123.90625 209.515625 136.222656 208.839844 Z M 182.53125 254.117188 C 198.328125 253.53125 221.300781 250.34375 223.027344 230.808594 C 223.703125 222.265625 220.257812 214.113281 219.710938 205.652344 C 208.9375 202.828125 199.820312 194.632812 194.59375 184.9375 C 185.902344 187.796875 176.289062 188.820312 167.457031 186.015625 C 162.128906 194.09375 155.757812 201.851562 147.492188 207.042969 C 146.066406 215.054688 142.082031 222.785156 142.941406 231.070312 C 144.285156 242.628906 155.074219 250.175781 165.726562 252.5625 C 170.425781 253.496094 175.074219 254.015625 179.691406 254.105469 C 180.675781 254.132812 180.988281 254.117188 182.53125 254.117188 Z M 177.808594 256.425781 C 161.671875 256.425781 141.769531 248.476562 140.445312 230.148438 C 140 222.730469 143.078125 215.757812 144.683594 208.648438 C 133.355469 215.035156 122.5625 209.152344 118.863281 197.28125 C 116.953125 191.125 115.390625 184.234375 117.613281 177.957031 C 121.332031 168.207031 134.058594 165.871094 140.746094 174.046875 C 147.921875 181.960938 149.371094 193.582031 148.019531 203.824219 C 154.957031 198.898438 160.417969 192.257812 165.089844 185.238281 C 158.902344 182.945312 153.144531 178.753906 150.1875 172.730469 C 145.746094 163.824219 144.382812 153.003906 146.878906 143.335938 C 151.15625 124.230469 174.746094 120.328125 179.414062 141.4375 C 181.625 154.933594 175.6875 172.339844 168.78125 183.898438 C 176.867188 186.328125 185.601562 185.292969 193.53125 182.753906 C 188.011719 170.5 186.09375 156.09375 190.570312 143.21875 C 193.3125 134.984375 200.511719 124.523438 210.464844 127.375 C 216.886719 129.292969 221.308594 134.976562 223.675781 141.027344 C 226.425781 149.320312 223.914062 158.578125 220.085938 166.144531 C 215.015625 174.769531 205.976562 180.453125 196.886719 184.125 C 201.710938 192.933594 209.898438 200.234375 219.574219 203.15625 C 219.261719 192.320312 222.203125 180.753906 230.027344 172.894531 C 236.113281 166.699219 247.230469 164.085938 251.902344 173.261719 C 259.601562 190.851562 239.410156 208.941406 222.167969 206.074219 C 223.035156 216.105469 227.613281 226.230469 224.398438 236.269531 C 219.839844 250.570312 203.402344 255.085938 189.96875 255.96875 C 186.296875 256.207031 183.792969 256.425781 179.9375 256.453125 C 179.480469 256.453125 179.132812 256.417969 177.808594 256.425781 Z M 177.808594 256.425781 "/></g></g></svg>